<svg width="60" height="70" viewBox="0 0 74 87" fill="none" xmlns="http://www.w3.org/2000/svg">
<path d="M73.2867 23.6187L73.2493 23.1593H72.7883H37.5116H37.0116V23.6593V29.8459V31.2481V31.7481H37.5116H52.5948H53.0948V31.2481V29.8958C53.0983 29.8953 53.1023 29.895 53.1068 29.895C53.1112 29.895 53.1153 29.8954 53.1189 29.896V31.2481V31.7481H53.6189H61.4166C64.7596 31.7481 67.6358 33.4187 69.0689 35.8173L69.2144 36.0608H69.4981H72.904H73.3942L73.4039 35.5707L73.4999 30.7212L73.5 30.7212V30.7113C73.4996 27.7416 73.4377 25.4748 73.2867 23.6187Z" stroke="white"/>
<path d="M69.6334 41.5839L69.6183 41.625L69.6106 41.6681L66.9646 56.4556L66.8594 57.0437H67.4568H71.9555H72.391L72.4508 56.6123C72.9867 52.7424 73.2525 48.2784 73.2527 43.1774L73.3844 36.4758L73.3944 35.966H72.8845H69.952H69.1926L69.4927 36.6636C69.846 37.4849 70.0457 38.3679 70.0457 39.2891C70.0457 40.0649 69.9075 40.837 69.6334 41.5839Z" stroke="white"/>
<path d="M43.5935 74.0465L43.0958 74.023L42.0047 85.5516L41.9467 86.1642L42.5581 86.0956C44.891 85.8342 47.1446 85.416 49.2534 84.847L49.5098 84.7779L49.596 84.5267L53.1318 74.2327L53.3593 73.5703H52.6589H43.5935V74.0465Z" stroke="white"/>
<path d="M43.1815 73.1212L43.1298 73.6683H43.6793H52.9689H53.3258L53.4418 73.3307L55.5057 67.3217L55.7332 66.6593H55.0328H44.2477H43.7928L43.7499 67.1122L43.1815 73.1212Z" stroke="white"/>
<path d="M24.4028 84.5265L24.489 84.7777L24.7454 84.8468C26.8544 85.416 29.1079 85.8341 31.4408 86.094L32.0518 86.1621L31.9939 85.55L30.9046 74.0231L30.8618 73.5701H30.4068H21.341V74.0701L20.8681 74.2325L24.4028 84.5265Z" stroke="white"/>
<path d="M7.23865 57.447V57.4916L7.24653 57.5355L7.65017 59.7812L7.66982 59.8905L7.72522 59.9689C8.21393 63.891 11.9263 66.7573 16.2766 66.7573H17.589H18.2893L18.0619 66.0949L15.0372 57.2845L14.9213 56.9469H14.5643H7.73865H7.23865V57.4469V57.447Z" stroke="white"/>
<path d="M29.6673 66.7575H30.2168L30.1651 66.2104L29.3327 57.4L29.2899 56.947H28.8349H15.6321H14.9318L15.1593 57.6094L18.1851 66.4199L18.3011 66.7575H18.658H29.6673Z" stroke="white"/>
<path d="M44.6351 57.4941L44.6868 56.947H44.1373H36.9998H29.8618H29.3123L29.364 57.4941L30.1964 66.3045L30.2392 66.7575H30.6942H36.9998H43.3053H43.7603L43.803 66.3045L44.6351 57.4941Z" stroke="white"/>
<path d="M30.85 73.2154L30.8928 73.6683H31.3478H36.4878H36.9878V73.1683V67.1593V66.6593H36.4878H30.7794H30.2298L30.2816 67.2064L30.85 73.2154Z" stroke="white"/>
<path d="M30.3209 73.6683H30.8705L30.8187 73.1212L30.2501 67.1122L30.2072 66.6593H29.7523H18.9676H18.2673L18.4947 67.3216L20.5574 73.3306L20.6734 73.6683H21.0304H30.3209Z" stroke="white"/>
<path d="M32.0359 85.749L32.075 86.1623L32.4884 86.1999C33.7998 86.3191 35.1317 86.3918 36.4824 86.4062L36.9877 86.4116V85.9062V74.0701V73.5701H36.4877H31.4336H30.8841L30.9358 74.1172L32.0359 85.749Z" stroke="white"/>
<path d="M42.6513 73.6683H43.1061L43.149 73.2154L43.7182 67.2065L43.77 66.6593H43.2204H37.5116H37.0116V67.1593V73.1683V73.6683H37.5116H42.6513Z" stroke="white"/>
<path d="M58.8406 57.6095L59.0681 56.947H58.3677H45.1651H44.7102L44.6674 57.4L43.8344 66.2104L43.7827 66.7575H44.3322H55.3416H55.6986L55.8145 66.4199L58.8406 57.6095Z" stroke="white"/>
<path d="M66.2774 59.9481L66.3334 59.8727L66.3541 59.757L66.7522 57.5335L66.8575 56.9454H66.26H59.4365H59.0795L58.9636 57.283L55.9387 66.0932L55.7112 66.7556H56.4116H57.7244C57.7244 66.7556 57.7245 66.7556 57.7246 66.7556C62.0828 66.7574 65.7992 63.8796 66.2774 59.9481Z" stroke="white"/>
<path d="M21.4052 35.9635H20.9052V36.4635V37.0466C20.9017 37.0472 20.8977 37.0475 20.8931 37.0475C20.8886 37.0475 20.8846 37.0471 20.8811 37.0466V36.4635V35.9635H20.3811H5.14227H4.83068L4.69341 36.2432C4.23585 37.1756 3.97748 38.2051 3.97748 39.2889C3.97748 40.0746 4.11553 40.8568 4.38625 41.6101L7.08398 56.6338L7.15789 57.0454H7.5761H36.9998H66.4218H66.8402L66.914 56.6336L69.5948 41.6766C69.8789 40.8634 70.0214 40.0809 70.0214 39.2899C70.0214 38.2057 69.7617 37.177 69.3043 36.2455L69.167 35.9658H68.8555H53.6185H53.1185V36.4658V37.0475C53.115 37.0481 53.1109 37.0485 53.1065 37.0485C53.102 37.0485 53.098 37.0482 53.0945 37.0476V36.4658V35.9658H52.5945H37.5113H37.0113V36.4658V37.0476C37.0078 37.0481 37.0039 37.0485 36.9994 37.0485C36.9949 37.0485 36.9909 37.0481 36.9874 37.0476V36.4635H36.4878V35.9635H36.4874H35.9874H21.4052Z" stroke="white"/>
<path d="M4.3696 41.6005L4.36157 41.5557L4.34556 41.513C4.092 40.8374 3.95343 40.0668 3.95343 39.2881C3.95343 38.3663 4.1536 37.484 4.50601 36.6591L4.80355 35.9626H4.04622H1.11407H0.604145L0.614171 36.4725L0.745891 43.1702C0.746063 48.2777 1.01393 52.7423 1.54834 56.6138L1.60792 57.0454H2.04364H6.54062H7.13822L7.03278 56.4572L4.3696 41.6005Z" stroke="white"/>
<path d="M37.5116 31.651H37.0116V32.151V35.5618V36.0618H37.5116H52.5948H53.0948V35.5618V32.151V31.651H52.5948H37.5116Z" stroke="white"/>
<path d="M53.6186 31.651H53.1186V32.151V35.5618V36.0618H53.6186H68.3159H69.2751L68.7258 35.2755C67.2012 33.093 64.4879 31.651 61.4163 31.651H53.6186Z" stroke="white"/>
<path d="M21.4053 31.651H20.9053V32.151V35.5618V36.0618H21.4053H36.488H36.988V35.5618V32.151V31.651H36.488H21.4053Z" stroke="white"/>
<path d="M20.8813 32.151V31.651H20.3813H12.5838C9.5118 31.651 6.80031 33.094 5.274 35.2752L4.7235 36.0618H5.68365H20.3813H20.8813V35.5618V32.151Z" stroke="white"/>
<path d="M20.3804 31.7491H20.8804V31.2491V29.8969C20.8839 29.8963 20.8879 29.896 20.8924 29.896C20.8969 29.896 20.9009 29.8963 20.9044 29.8969V31.2491V31.7491H21.4044H36.4871H36.9871V31.2491V29.8469V23.6603V23.1603H36.4871H1.21106H0.7498L0.712679 23.62C0.562704 25.4776 0.5 27.7464 0.5 30.7217H0.499903L0.500097 30.7316L0.59553 35.574L0.60519 36.0642H1.09543H4.50131H4.7853L4.93075 35.8203C6.36228 33.4197 9.23878 31.7491 12.583 31.7491H20.3804Z" stroke="white"/>
<path d="M18.3713 66.9969L18.2554 66.6593H17.8984H16.2766C11.8378 66.6593 8.2247 63.7727 7.71002 60.0289L7.69404 59.9127L7.63706 59.8289L7.19365 57.3587L7.11975 56.947H6.70151H2.17139H1.58907L1.67714 57.5227C2.51023 62.9677 3.91073 67.2005 5.93171 70.2649C5.93207 70.2656 5.93242 70.2662 5.93276 70.2667L5.93319 70.2675L5.94304 70.2893L5.96545 70.3231C6.32529 70.8653 7.33071 72.0931 8.5377 73.4938L8.6873 73.6674H8.91648H19.9612H20.6615L20.4341 73.0051L18.3713 66.9969Z" stroke="white"/>
<path d="M9.70154 73.5701H8.59832L9.32555 74.3997C10.4377 75.6684 11.662 77.0198 12.7459 78.1534C13.8083 79.2645 14.7678 80.2007 15.3549 80.6272C15.3671 80.6371 15.383 80.6491 15.4021 80.6617L15.4026 80.6622L15.4231 80.6768C17.6292 82.257 20.4126 83.5442 23.5417 84.4982L24.4785 84.7838L24.1604 83.8575L20.7437 73.9077L20.6278 73.5701H20.2708H9.70154Z" stroke="white"/>
<path d="M37.5116 73.5701H37.0116V74.0701V85.9054V86.4112L37.5173 86.4054C38.8674 86.3899 40.1996 86.3181 41.5111 86.198L41.9242 86.1602L41.9633 85.7472L43.0633 74.1172L43.1151 73.5701H42.5656H37.5116Z" stroke="white"/>
<path d="M49.839 83.8592L49.5212 84.7848L50.4574 84.4999C53.5785 83.5503 56.3568 82.2653 58.5596 80.6906L58.572 80.6851L58.6154 80.653C58.6157 80.6528 58.6162 80.6525 58.6167 80.6521C58.6219 80.6483 58.6376 80.6369 58.658 80.6191C59.2462 80.1882 60.1989 79.2584 61.2536 78.1554C62.3369 77.0224 63.5609 75.6712 64.6742 74.4002L65.4007 73.5708H64.2981H53.7286H53.3717L53.2557 73.9084L49.839 83.8592Z" stroke="white"/>
<path d="M66.3572 59.8508L66.3021 59.9305L66.2857 60.0478C65.7629 63.7808 62.1562 66.66 57.7206 66.66H56.0984H55.7413L55.6254 66.9978L53.5657 73.006L53.3387 73.6681H54.0387H65.0789H65.3082L65.4579 73.4942C66.5308 72.2473 67.4479 71.1328 67.901 70.5052H68.0041L68.0969 70.2192C70.1018 67.1583 71.4926 62.9397 72.3218 57.521L72.4099 56.9454H71.8276H67.2957H66.8773L66.8035 57.3573L66.3572 59.8508Z" stroke="white"/>
<path d="M52.3769 3.66996V3.27762L51.9958 3.18431C50.6464 2.8539 49.3476 2.58547 48.0555 2.36895L47.4729 2.27131V2.86207L47.4729 8.19016L47.4729 8.19237C47.4786 9.47243 48.6355 10.4081 49.9259 10.4081C51.2162 10.4081 52.3769 9.47203 52.3769 8.19016V3.66996Z" stroke="white"/>
<path d="M72.4812 18.7542L72.481 18.7538C70.4956 11.7018 63.3447 6.19094 53.0292 3.44744L52.4007 3.28028V3.93064V8.19016C52.4007 9.30164 51.3502 10.3099 49.928 10.3099C48.5062 10.3099 47.4572 9.30043 47.4572 8.19016V2.70036V2.26877L47.0302 2.20572C44.0006 1.75836 40.8062 1.52162 37.5149 1.50001L37.0116 1.49671V2V22.7586V23.2586H37.5116H72.7066H73.2619L73.2039 22.7063C73.0422 21.1682 72.8077 19.918 72.4812 18.7542ZM49.9259 17.9338C48.5002 17.9338 47.453 16.9245 47.453 15.8141C47.453 14.7027 48.5015 13.6957 49.9259 13.6957C51.3505 13.6957 52.4007 14.7047 52.4007 15.8141C52.4007 16.9241 51.3521 17.9338 49.9259 17.9338Z" stroke="white"/>
<path d="M52.3769 15.8141C52.3769 14.5316 51.217 13.5966 49.9259 13.5966C48.6348 13.5966 47.475 14.5316 47.475 15.8141C47.475 17.0969 48.6347 18.0322 49.9259 18.0322C51.2172 18.0322 52.3769 17.0969 52.3769 15.8141Z" stroke="white"/>
<path d="M26.5229 2.86207V2.27186L25.9407 2.36887C24.6509 2.58381 23.3532 2.85315 22.0039 3.18438L21.6231 3.27786V3.66996L21.6231 8.191L21.6231 8.1916C21.6247 9.47282 22.7841 10.4081 24.0737 10.4081C25.3634 10.4081 26.5229 9.47165 26.5229 8.19016V2.86207Z" stroke="white"/>
<path d="M21.6231 15.814V15.8141C21.6231 17.0967 22.7814 18.0322 24.0737 18.0322C25.3659 18.0322 26.5239 17.0966 26.5239 15.8141C26.5239 14.5319 25.3657 13.5966 24.0737 13.5966C22.7815 13.5966 21.6234 14.5319 21.6231 15.814Z" stroke="white"/>
<path d="M36.9878 2V1.4967L36.4845 1.50001C33.1957 1.52162 29.9988 1.75836 26.9738 2.20574L26.5469 2.26887V2.70036V8.19016C26.5469 9.3018 25.4983 10.3099 24.0737 10.3099C22.649 10.3099 21.6002 9.30014 21.6002 8.19016V3.93064V3.28029L20.9717 3.44743C10.6555 6.19094 3.50532 11.7018 1.52024 18.7528C1.19156 19.9174 0.958035 21.1678 0.796793 22.7056L0.7389 23.2578H1.29407H36.4878H36.9878V22.7578V2ZM24.0737 17.9338C22.6479 17.9338 21.5992 16.9241 21.5992 15.8141C21.5992 14.703 22.6482 13.6957 24.0737 13.6957C25.4984 13.6957 26.5469 14.7044 26.5469 15.8141C26.5469 16.9243 25.4991 17.9338 24.0737 17.9338Z" stroke="white"/>
</svg>
